<?xml version="1.0" encoding="utf-8"?>
<!-- Generator: Adobe Illustrator 20.1.0, SVG Export Plug-In . SVG Version: 6.00 Build 0)  -->
<svg version="1.1" id="Layer_1" xmlns="http://www.w3.org/2000/svg" xmlns:xlink="http://www.w3.org/1999/xlink" x="0px" y="0px"
	 viewBox="0 0 235.7 242.9" style="enable-background:new 0 0 235.7 242.9;" xml:space="preserve">
<style type="text/css">
	.st0{fill:#A4A9AD;}
	.st1{fill:#0D2240;}
	.st2{fill:#FFFFFF;}
	.st3{fill:#A4C7E2;}
	.st4{fill:#EB0029;}
</style>
<g>
	<g>
		<path class="st0" d="M177.6,120.1c-3.4-5.7-7.5-10.7-9.8-13.2l1.8-1l-0.7-1.6c-1.6-3.7-4.3-7.6-5.2-8.8
			c-4.8-33.1-19.9-42.9-20.5-43.3l-1.2-0.7l-1,1c-7.6,7-10.8,16.6-11.8,20.4c-3.9-0.3-9.3-0.6-9.6-0.6l-0.1,0l-0.1,0
			c-0.3,0-5.7,0.3-9.6,0.6c-1-3.8-4.2-13.4-11.8-20.4l-1-1l-1.2,0.7c-0.6,0.4-15.7,10.1-20.5,43.3c-0.9,1.2-3.5,5.1-5.2,8.8
			l-0.7,1.6l1.8,1c-2.2,2.5-6.4,7.5-9.7,13.2l-0.4,0.7l0.2,0.7c0.3,1,6.3,23.7,15.3,39.4l2.1,3.6l1.5-4.7
			c3.4,5.4,10.6,15.6,20.4,21.7c1.2,2.8,6.8,14.3,18.6,15.9l0.3,0l0.3,0c11.8-1.7,17.4-13.1,18.6-15.9c9.9-6.1,17.1-16.3,20.4-21.7
			l1.5,4.7l2.1-3.6c9-15.7,15-38.5,15.3-39.4l0.2-0.7L177.6,120.1z M160.9,160l-1.5-4.6c0,0-8.7,16.8-22.4,24.9
			c0,0-5.1,13.7-17.4,15.4c-12.3-1.7-17.4-15.4-17.4-15.4c-13.7-8.1-22.4-24.9-22.4-24.9l-1.5,4.6c-9-15.7-15.1-39-15.1-39
			c4.7-8,11.1-14.7,11.1-14.7l-2.4-1.3c1.9-4.3,5.2-8.8,5.2-8.8c4.7-33,19.7-42.4,19.7-42.4c9.2,8.4,11.7,21,11.7,21
			c3.8-0.4,11.1-0.8,11.1-0.8s7.2,0.3,11.1,0.8c0,0,2.5-12.6,11.7-21c0,0,15,9.4,19.7,42.4c0,0,3.4,4.6,5.2,8.8l-2.4,1.3
			c0,0,6.4,6.7,11.1,14.7C176,121.1,169.9,144.4,160.9,160z"/>
		<path class="st1" d="M136.9,150.2c-4.2,8.1-5.9,11-11.3,11.2c-5.3,0.2-4.7-2.6-4.7-2.6s6.5-1.5,6.6-11.3c0,0-2.9-3.4-7.8-3.4
			c-4.9,0-7.8,3.4-7.8,3.4c0.1,9.8,6.6,11.3,6.6,11.3s0.6,2.8-4.7,2.6c-5.3-0.2-7-3.1-11.3-11.2c-1.6-3.1-3-4.1-4-4.1
			c3.8,6.6,6.2,14.8,6.8,16.7c0.8,2.3,1.5,4.7,2,7.1c2.7,11.6,12.4,12.5,12.4,12.5s9.7-0.9,12.4-12.5c0.6-2.6,1.4-5.2,2.2-7.6
			c0.7-2.5,3.1-10.1,6.6-16.2C139.8,146.1,138.5,147,136.9,150.2z M114.4,148.7c0.8-1.4,3-2.3,5.1-2.3c2.1,0,4.4,0.9,5.1,2.3
			c-1.2-1-3.2-1.6-5.1-1.6C117.7,147.2,115.6,147.8,114.4,148.7z M119.6,168.7c1.4,0,0.6-3.5,5.3-3.5c-0.1,3.8-2.8,6.2-5.3,6.3
			c-2.5-0.1-5.2-2.5-5.3-6.3C119,165.1,118.2,168.7,119.6,168.7z M126,176.9c-3.8,1.3-3.3,2-6.4,2.1c-3.1-0.2-2.6-0.9-6.4-2.1
			c-3.7-1.7-4.1-9-1.6-11.2c-1.1,4.8,2.8,9.4,2.9,9.2c0.1-1,1-1.3,1-1.3c0-0.1,0.7,2.8,4.2,2.9c3.5-0.1,4.2-2.9,4.2-2.9
			c0,0,0.8,0.3,1,1.3c0,0.1,4-4.4,2.9-9.2C130.1,168,129.7,175.3,126,176.9z"/>
		<path class="st1" d="M167.3,105.1c-1.9-4.3-5.2-8.8-5.2-8.8c-4.7-33-19.7-42.4-19.7-42.4c-9.1,8.4-11.7,21-11.7,21
			c-3.8-0.4-11.1-0.8-11.1-0.8s-7.2,0.3-11.1,0.8c0,0-2.5-12.6-11.7-21c0,0-15,9.4-19.7,42.4c0,0-3.4,4.6-5.2,8.8l2.4,1.3
			c0,0-6.4,6.7-11.1,14.7c0,0,6.1,23.3,15.1,39l1.5-4.6c0,0,8.7,16.8,22.4,24.9c0,0,5.1,13.7,17.4,15.4
			c12.3-1.7,17.4-15.4,17.4-15.4c13.7-8.1,22.4-24.9,22.4-24.9l1.5,4.6c9-15.7,15.1-39,15.1-39c-4.7-8-11.1-14.7-11.1-14.7
			L167.3,105.1z M133,80.2c0,0,2.2-12.7,9.9-19.5c0,0,11.6,8,14.7,32.6c0,0-2.2-5.7-5.7-13.6c-3.5-7.9-8.6-14.6-8.6-14.6
			c-2.6,4.1-2.9,9.7-2.9,9.7c3.7,5.2,5.2,10.1,5.2,10.1l-2.4-0.3c1.7,3.2,2.5,8.7,2.5,8.7c-7-7.3-14.7-11.1-14.7-11.1
			s3.1-0.4,4.5-0.4L133,80.2z M96.4,60.6c7.6,6.8,9.9,19.5,9.9,19.5l-2.4,1.5c1.4,0,4.5,0.4,4.5,0.4s-7.6,3.9-14.7,11.1
			c0,0,0.8-5.4,2.5-8.7l-2.4,0.3c0,0,1.5-4.9,5.2-10.1c0,0-0.3-5.7-2.9-9.7c0,0-5.1,6.7-8.6,14.6c-3.5,7.9-5.7,13.6-5.7,13.6
			C84.9,68.6,96.4,60.6,96.4,60.6z M167.3,123.9c-2.7,11.5-7.9,23.6-7.9,23.6l-1.5-3.7c-6.5,12.8-12.7,16.8-12.7,16.8
			c1.8-6.4,4.7-13.5,4.7-13.5c-9.2,6.6-14.6,20.9-17,28.4c-3.6,11.5-13.4,11.3-13.4,11.3s-9.7,0.3-13.4-11.3
			c-2.4-7.5-7.9-21.8-17-28.4c0,0,2.9,7.1,4.7,13.5c0,0-6.1-4-12.7-16.8l-1.5,3.7c0,0-5.1-12.1-7.8-23.6l8.1-1.1l-4.9-3.2l4.9-4.2
			c0,0,3.6,0.4,8.7,2.2c0,0,1.4,7.5,5.5,12.1c0,0-1.8-8.3-1.5-14.9c0,0,5.7-1.1,9.9-6.5l-1.5-0.7c0,0,1.7-3,3.7-5.4
			c4.4,1.7,7.4,5.9,7.4,5.9c0.9,13.2-2.5,15.7-2.5,15.7c-3.6-8.3-7.9-10.2-7.9-10.2l0.8,2.6c-3.3-0.5-6.5-0.1-6.5-0.1
			s0.3,6.7,8.7,9.2c0,0-0.2,5.1,0.8,9.7c0,0,3.7-5.9,9.9-10.3c0,0,0.8-18.1,3.8-32.1c3,14,4,32.1,4,32.1c6.1,4.4,9.9,10.3,9.9,10.3
			c1-4.6,0.8-9.7,0.8-9.7c8.4-2.5,8.8-9.2,8.8-9.2s-3.2-0.4-6.5,0.1l0.8-2.6c0,0-4.2,1.9-7.8,10.2c0,0-3.4-2.5-2.5-15.7
			c0,0,3-4.2,7.4-5.9c2,2.5,3.7,5.4,3.7,5.4l-1.5,0.7c4.1,5.5,9.9,6.5,9.9,6.5c0.3,6.6-1.5,14.9-1.5,14.9c4.1-4.6,5.5-12.1,5.5-12.1
			c5.1-1.8,8.7-2.2,8.7-2.2l4.9,4.2l-4.9,3.2L167.3,123.9z M103,120.6c0.4,0.1,0.8,0.1,1,0c-0.4-0.5-0.6-1.1-0.8-1.7
			c0.8,0.3,1.7,0.7,2.6,1.4c0,0-0.7,2.5-3.3,1.7c-2.6-0.8-1.9-3.7-1.9-3.7s0.5,0,1.3,0.2C101.9,118.8,101.7,120.2,103,120.6z
			 M136.3,120.6c1.4-0.4,1.2-1.8,1.1-2.1c0.8-0.2,1.3-0.2,1.3-0.2s0.7,2.9-2,3.7c-2.7,0.8-3.3-1.7-3.3-1.7c0.9-0.7,1.8-1.1,2.7-1.4
			c-0.2,0.5-0.4,1.1-0.8,1.7C135.5,120.7,135.9,120.8,136.3,120.6z"/>
		<path class="st2" d="M96.1,65c2.6,4.1,2.9,9.7,2.9,9.7c-3.7,5.2-5.2,10.1-5.2,10.1l2.4-0.3c-1.7,3.2-2.5,8.7-2.5,8.7
			c7-7.3,14.7-11.1,14.7-11.1s-3.1-0.4-4.5-0.4l2.4-1.5c0,0-2.2-12.7-9.9-19.5c0,0-11.6,8-14.7,32.6c0,0,2.2-5.7,5.7-13.6
			C91,71.7,96.1,65,96.1,65z"/>
		<path class="st2" d="M145.6,93.2c0,0-0.8-5.4-2.5-8.7l2.4,0.3c0,0-1.5-4.9-5.2-10.1c0,0,0.3-5.7,2.9-9.7c0,0,5.1,6.7,8.6,14.6
			c3.5,7.9,5.7,13.6,5.7,13.6c-3.1-24.6-14.7-32.6-14.7-32.6c-7.6,6.8-9.9,19.5-9.9,19.5l2.4,1.5c-1.4,0-4.5,0.4-4.5,0.4
			S138.6,85.9,145.6,93.2z"/>
		<path class="st3" d="M100.6,118.4c0,0-0.7,2.9,1.9,3.7c2.7,0.8,3.3-1.7,3.3-1.7c-0.9-0.7-1.8-1.1-2.6-1.4c0.2,0.5,0.4,1.1,0.8,1.7
			c-0.3,0.1-0.6,0.1-1,0c-1.4-0.4-1.2-1.8-1.1-2.1C101.1,118.4,100.6,118.4,100.6,118.4z"/>
		<path class="st3" d="M133.4,120.4c0,0,0.7,2.5,3.3,1.7c2.6-0.8,2-3.7,2-3.7s-0.5,0-1.3,0.2c0.1,0.2,0.3,1.6-1.1,2.1
			c-0.4,0.1-0.8,0.1-1,0c0.4-0.5,0.6-1.1,0.8-1.7C135.3,119.3,134.3,119.7,133.4,120.4z"/>
		<path class="st4" d="M119.6,171.5c2.5-0.1,5.2-2.5,5.3-6.3c-4.7,0-3.9,3.5-5.3,3.5c-1.4,0-0.6-3.5-5.3-3.5
			C114.4,168.9,117.1,171.4,119.6,171.5z"/>
		<path class="st2" d="M124.7,148.7c-0.8-1.4-3-2.3-5.1-2.3c-2.1,0-4.4,0.9-5.1,2.3c1.2-1,3.3-1.6,5.1-1.6
			C121.5,147.2,123.6,147.8,124.7,148.7z"/>
		<path class="st2" d="M124.7,174.9c-0.1-1-1-1.3-1-1.3c0-0.1-0.7,2.8-4.2,2.9c-3.5-0.1-4.2-2.9-4.2-2.9c0,0-0.8,0.3-1,1.3
			c0,0.1-4-4.4-2.9-9.2c-2.6,2.3-2.1,9.5,1.6,11.2c3.8,1.3,3.4,2,6.4,2.1c3.1-0.2,2.6-0.9,6.4-2.1c3.7-1.7,4.2-9,1.6-11.2
			C128.7,170.5,124.7,175.1,124.7,174.9z"/>
		<path class="st2" d="M164.1,119.7l-4.9-4.2c0,0-3.6,0.4-8.7,2.2c0,0-1.4,7.5-5.5,12.1c0,0,1.8-8.3,1.5-14.9c0,0-5.7-1.1-9.9-6.5
			l1.5-0.7c0,0-1.7-3-3.7-5.4c-4.4,1.7-7.4,5.9-7.4,5.9c-0.9,13.2,2.5,15.7,2.5,15.7c3.6-8.3,7.8-10.2,7.8-10.2l-0.8,2.6
			c3.3-0.5,6.5-0.1,6.5-0.1s-0.3,6.7-8.8,9.2c0,0,0.2,5.1-0.8,9.7c0,0-3.7-5.9-9.9-10.3c0,0-1-18.1-4-32.1c-3,14-3.8,32.1-3.8,32.1
			c-6.1,4.4-9.9,10.3-9.9,10.3c-1-4.6-0.8-9.7-0.8-9.7c-8.4-2.5-8.7-9.2-8.7-9.2s3.2-0.4,6.5,0.1l-0.8-2.6c0,0,4.2,1.9,7.9,10.2
			c0,0,3.4-2.5,2.5-15.7c0,0-3-4.2-7.4-5.9c-2,2.5-3.7,5.4-3.7,5.4l1.5,0.7c-4.1,5.5-9.9,6.5-9.9,6.5c-0.3,6.6,1.5,14.9,1.5,14.9
			c-4.1-4.6-5.5-12.1-5.5-12.1c-5.1-1.8-8.7-2.2-8.7-2.2l-4.9,4.2l4.9,3.2l-8.1,1.1c2.7,11.5,7.8,23.6,7.8,23.6l1.5-3.7
			c6.5,12.8,12.7,16.8,12.7,16.8c-1.8-6.4-4.7-13.5-4.7-13.5c9.1,6.6,14.6,20.9,17,28.4c3.6,11.5,13.4,11.3,13.4,11.3
			s9.8,0.3,13.4-11.3c2.4-7.5,7.8-21.8,17-28.4c0,0-2.9,7.1-4.7,13.5c0,0,6.1-4,12.7-16.8l1.5,3.7c0,0,5.1-12.1,7.9-23.6l-8.2-1.1
			L164.1,119.7z M134.2,162.3c-0.8,2.4-1.6,5-2.2,7.6c-2.7,11.6-12.4,12.5-12.4,12.5s-9.6-0.9-12.4-12.5c-0.6-2.5-1.3-4.9-2-7.1
			c-0.5-1.9-3-10.1-6.8-16.7c1,0,2.3,1,4,4.1c4.2,8.1,5.9,11,11.3,11.2c5.3,0.2,4.7-2.6,4.7-2.6s-6.5-1.5-6.6-11.3
			c0,0,2.9-3.4,7.8-3.4c4.9,0,7.8,3.4,7.8,3.4c-0.1,9.8-6.6,11.3-6.6,11.3s-0.6,2.8,4.7,2.6c5.3-0.2,7-3.1,11.3-11.2
			c1.6-3.2,3-4.1,4-4.1C137.3,152.2,135,159.7,134.2,162.3z"/>
		<line class="st0" x1="156.3" y1="164.1" x2="156.3" y2="164.3"/>
	</g>
	<g>
		<path class="st1" d="M82.4,37l-3.4,1.3 M91.9,33.5"/>
	</g>
	<g>
		<path class="st0" d="M99.6,235.5 M99.9,233.7"/>
		<path class="st0" d="M111.8,236.8l-1.9-0.1"/>
		<path class="st0" d="M141.1,233.4c-1,1.3-2.1,2.3-4.1,2.6 M136.8,234.2"/>
	</g>
</g>
</svg>
